Patient4_TMGait_0pt7_01_left_28_EMG.mot
version=1
nRows=40
nColumns=33
inDegrees=no
endheader
time	1LAddLong	2LGlutMax	3LGlutMed	4LIliopsoas	5LSemiMemb	6LBicFemLong	7LRecFem	8LVastMed	9LVastLat	10LGasMed	11LTibAnt	12lTibPost	13LPeroneusLong	14LSol	15LExtDigLong	16LFlexDigLong	17RAddLong	18RGlutMax	19RGlutMed	20RIliopsoas	21RSemiMemb	22RBicFemLong	23RRecFem	24RVastMed	25RVastLat	26RGasMed	27RTibAnt	28RTibPost	29RPeroneusLong	30RSol	31RExtDigLong	32RFlexDigLong
32.667	0.017395	1.1461	-0.12741	0.000305	-0.12756	-0.36682	-0.21301	0.010834	-0.38437	0.026245	-0.010529	0.12985	0.42374	0.21423	-0.045471	0.028229	0.14587	0.52445	-0.089874	0.018311	-0.12848	0.027313	0.56946	-0.12894	-0.00351	0.000305	0.000916	-0.35812	-0.088196	-0.24765	0.001831	-0.000305
32.668	0.024109	1.1726	-0.051117	0.010986	-0.12466	-0.16022	-0.31815	0.018616	-0.36911	-0.098419	0.003357	0.15793	-0.34637	0.29266	0.028229	0.025635	0.13962	0.44098	-0.08316	0.038452	-0.12497	-0.004425	0.58762	-0.1683	-0.033417	0.005646	-0.021057	0.17059	-0.019989	-0.33127	0.001678	0.003357
32.669	0.022125	1.1577	0.088196	-0.00412	-0.10056	0.016174	-0.38742	0.018311	-0.3598	-0.16052	0.011749	0.18433	-0.38254	0.35477	0.041504	0.027161	0.22964	0.3775	-0.23804	0.039215	-0.11658	0.003815	0.61813	-0.13687	-0.036011	0.006104	-0.03479	0.13489	0.11353	-0.26764	-0.000305	-0.00061
32.67	0.025024	1.1681	0.082092	0.000305	-0.048828	-0.49622	-0.41718	0.018158	-0.3186	0.00885	0.023499	0.19073	-0.17822	0.39078	0.018616	-0.018005	0.21698	0.28351	-0.27268	0.018005	-0.13855	-0.018005	0.61584	-0.18967	-0.039215	0.001678	0.014954	0.03006	0.13214	-0.10742	-0.000763	-0.008087
32.671	0.028229	1.172	0.020294	-0.002747	-0.043335	-0.42572	-0.47745	0.009155	-0.27191	0.1062	0.032349	0.19272	0.092316	0.35919	-0.064087	0.10788	0.1471	0.24033	-0.32272	0.030975	-0.1413	-0.016785	0.54596	-0.22751	-0.035248	-0.005646	0.11231	-0.033722	0.075226	-0.066528	-0.000458	-0.008545
32.672	0.029144	1.1916	0.014954	0.000763	-0.016022	-0.31464	-0.49683	0.010834	-0.24338	0.28412	0.026093	0.18967	0.074158	0.2066	-0.093536	0.019989	0.089722	0.1976	-0.3833	-0.056763	-0.12268	-0.001526	0.59799	-0.16419	-0.023651	0.000305	0.18585	-0.015564	0.32166	-0.027924	-0.005798	-0.00885
32.673	0.010986	1.1806	0.037079	0.011139	-0.013428	-0.30853	-0.49332	0.000763	-0.20416	0.61005	0.03891	0.19073	0.15457	0.099487	-0.083466	-0.11139	-0.021362	0.16647	-0.31769	-0.15472	-0.10529	0.038147	0.75394	-0.10086	-0.002289	0.009155	0.19806	0.061951	0.35034	-0.007172	-0.003052	-0.011444
32.674	0.027924	1.1702	-0.001221	0.018005	0.011292	-0.21088	-0.50262	-0.003052	-0.15747	0.27924	0.035248	0.19424	0.24536	0.15701	-0.024567	0.23377	-0.12756	0.13886	-0.17044	-0.13077	-0.1294	0.044556	0.83206	-0.02121	0.003357	0.015259	0.093689	0.023499	0.042267	-0.027618	0.002441	-0.012207
32.675	0.035858	1.118	-0.013428	0.014801	0.03418	0.00824	-0.51437	0.01297	-0.10788	-0.33157	0.008545	0.21469	0.26962	0.16632	-0.005646	0.12604	-0.16312	0.11093	-0.43228	0.013733	-0.1384	0.050659	0.8139	-0.042877	0.018616	0.023193	-0.069427	0.002747	-0.2977	-0.063477	-0.004425	-0.009308
32.676	0.022736	1.0822	-0.029144	0.018768	0.00061	0.20569	-0.48035	-0.001373	-0.085144	-0.49744	-0.018005	0.23666	0.2565	0.030365	-0.039063	-0.12329	-0.20523	0.10849	-0.65765	-0.056	-0.12741	0.06897	0.68192	-0.075836	0.006104	0.019684	0.054779	-0.00946	-0.48279	-0.065308	-0.004425	-0.003052
32.677	0.019989	1.0262	-0.077972	0.009155	-0.078278	0.36484	-0.44418	-0.004272	-0.059204	-0.25314	-0.019989	0.2301	0.91995	-0.004272	0.011292	-0.088043	-0.23102	0.11597	-0.34042	-0.12421	-0.12665	0.075684	0.59128	-0.14969	-0.001221	0.010986	-0.005493	-0.004425	-0.21255	-0.047607	-0.003662	-0.012512
32.678	0.030212	0.97748	0.064545	0.015717	-0.15274	0.28534	-0.42389	0.000305	-0.066223	-0.19623	-0.006561	0.051727	0.33539	-0.06012	0.057983	-0.040894	-0.17883	0.17853	-0.17777	-0.099182	-0.12253	0.068512	0.72067	-0.12222	-0.00885	0.01236	-0.12405	-0.0177	0.079346	-0.026093	-0.004883	-0.014496
32.679	0.036774	0.9404	0.048523	0.026398	-0.10025	0.34393	-0.31952	0.010376	-0.094604	-0.2359	0.010681	0.10971	-0.97611	0.080261	0.11154	-0.050201	-0.13382	0.18707	-0.067291	-0.040741	-0.077515	0.074768	0.8847	-0.062103	-0.029602	0.012817	-0.14053	-0.009918	0.047913	-0.006409	-0.003052	-0.02243
32.68	0.030212	0.93964	-0.004272	0.013275	0.031586	0.39352	-0.29083	0.016937	0.011749	-0.21347	0.015564	0.068665	-1.0008	0.11108	-0.025024	-0.057678	-0.066528	0.25894	-0.16876	0.12161	-0.045471	-0.001221	1.0063	-0.084381	-0.025635	0.018463	-0.09903	-0.01297	-0.03479	-0.06073	-0.001678	-0.010986
32.681	0.039368	0.94009	-0.040588	-0.020752	-0.090027	0.31647	-0.39871	0.006104	0.15671	-0.159	0.002289	0.020905	-0.39536	-0.025787	-0.093079	-0.015106	-0.028992	0.45181	-0.39917	0.30731	-0.030975	-0.081024	0.98679	-0.06485	-0.025482	0.009766	-0.0354	-0.011139	0.10498	-0.036774	0.005798	-0.012207
32.682	0.042419	0.97748	-0.094452	-0.001831	-0.072327	0.39352	-0.38528	-0.002289	0.31784	-0.15854	-0.035858	0.026398	0.11261	-0.25482	-0.086823	0.1088	0.059357	0.56458	-0.4837	0.3064	-0.023804	-0.077209	0.81192	-0.096283	-0.008698	0.007172	-0.015564	-0.012665	0.28549	-0.052338	-0.00473	-0.013275
32.683	0.042267	1.0686	-0.081482	-0.010223	0.070648	0.20767	-0.31418	-0.008392	0.44754	-0.13031	-0.043335	0.010529	-0.32852	-0.18921	-0.062256	0.11932	0.10696	0.69534	-0.51666	0.13336	-0.028381	-0.042725	0.6192	-0.13931	-0.030518	0.008545	-0.0354	-0.018005	0.41336	-0.092316	0.002747	-0.00885
32.684	0.041046	1.1531	-0.063934	0.001526	0.097961	0.46097	-0.24643	0.005035	0.41428	-0.022125	0.00946	-0.021515	-0.14252	-0.27756	-0.0737	0.021057	0.18738	0.75241	0.038757	0.062561	-0.014954	-0.069885	0.62241	-0.17654	-0.048523	-0.001068	-0.029449	-0.020905	-0.56686	-0.080566	-0.003662	-0.008087
32.685	0.034637	1.1517	-0.14847	-0.003815	0.034637	0.58212	-0.27374	0.001068	0.31509	-0.011292	-0.014343	-0.065155	-0.031433	-0.11108	-0.095215	0.013123	0.22293	0.78659	-0.20004	0.043335	0.03952	-0.082092	0.78934	-0.17914	-0.034637	0.001526	-0.10178	-0.023499	-0.70816	-0.064392	-0.002899	-0.001678
32.686	0.005035	1.1003	-0.31052	-0.043793	0.006409	0.58563	-0.2301	0.00473	0.077667	0.038147	-0.063934	-0.087738	-0.019379	-0.12573	-0.16968	0.009155	0.20828	0.81268	-0.39719	-0.012207	0.040283	-0.075684	0.82657	-0.1297	-0.027924	-0.008545	-0.069885	-0.018768	-0.84412	0.001984	0	-0.011444
32.687	0.010071	1.0992	-0.26459	-0.042267	-0.018921	0.38742	-0.29495	0.019226	0.001221	0.018768	-0.12314	-0.10757	0.58395	0.061951	-0.19196	0.008392	0.15472	0.88776	-0.26794	-0.097351	0.010071	-0.022583	0.79575	-0.13062	-0.005493	-0.011292	0.005646	-0.01297	-0.2829	-0.02655	-0.003052	-0.01297
32.688	-0.007935	1.0197	-0.16083	-0.003204	-0.039673	0.16098	-0.233	0.009613	0.14358	-0.010681	-0.16571	-0.12787	0.87463	0.29373	-0.19333	-0.00473	0.052032	0.91934	-0.37766	-0.13031	-0.011749	-0.027313	0.75775	-0.15076	-0.010071	-0.00824	0.020905	-0.005951	0.30106	0.050507	-0.005493	-0.018463
32.689	-0.018463	0.89066	0.052643	0.053558	-0.029449	-0.45013	-0.18768	-0.024261	0.14389	-0.014343	-0.048676	-0.14404	0.40222	0.34561	-0.11749	0.002289	-0.009766	0.94818	-0.24338	-0.054169	-0.027466	-0.020142	0.80139	-0.12222	-0.009918	-0.007935	0.002747	0.033722	0.52765	0.2771	-0.003815	-0.020599
32.69	0.007477	0.63644	0.062408	0.028839	-0.038605	-0.63751	-0.14114	-0.037994	0.075684	-0.013123	0.026703	-0.14053	0.15595	0.068817	-0.10407	0.003967	0.012817	1.0008	-0.23712	0.058441	-0.0354	0.002441	0.85907	-0.001068	0.014496	0.007629	-0.068054	-0.018921	0.10941	0.37933	-0.002747	-0.016327
32.691	-0.011139	0.52307	0.11963	0.022278	-0.056458	-0.33295	-0.15945	-0.025482	0.087128	-0.034943	0.083313	-0.14816	0.18555	-0.018768	0.25604	0.001373	0.11719	1.0234	0.066833	0.16892	-0.025482	-0.000458	0.69611	0.065155	0.040588	0.00351	-0.10513	-0.032654	0.094147	0.40207	-0.003967	-0.023804
32.692	-0.010834	0.38406	0.14572	0.012817	-0.095673	-0.27252	-0.17807	-0.013885	0.082092	-0.045319	0.11566	-0.14481	-0.2066	0.034332	0.3804	0.015869	0.11169	1.0538	-0.58075	0.19836	-0.046844	-0.017395	0.55618	0.031738	0.069122	-0.00412	-0.023499	-0.030823	-0.92239	0.18509	0.008087	-0.020142
32.693	-0.010834	0.25482	0.16342	0.01297	-0.095825	-0.14328	-0.16937	-0.014648	0.047455	-0.038605	0.008087	-0.15503	-0.60165	0.085297	0.33844	0.020294	0.091248	1.0518	-0.52094	0.094147	-0.070496	-0.036316	0.61935	-0.033112	0.037842	-0.000763	0.037994	-0.026703	-0.74524	-0.023499	-0.00351	-0.024719
32.694	0.001221	0.13214	0.047607	0.019226	-0.082245	0.075073	-0.17136	-0.014954	0.13809	-0.037231	0.036316	-0.18372	-0.32425	0.061188	0.31326	0.009613	0.055542	1.0931	-0.14694	0.18082	-0.081787	-0.082855	0.62042	0.04303	0.005188	0.006714	0.070953	-0.019226	-0.05127	-0.17868	-0.000763	-0.022888
32.695	-0.000763	0.11917	0.084991	0.009155	-0.075378	0.18021	-0.21301	-0.016022	0.24643	0.027924	0.011139	-0.17838	0.42221	0.07431	0.17792	0.005035	-0.005188	1.0901	0.14633	0.12573	-0.088959	-0.10956	0.60837	0.044403	-0.021057	0.010223	0.095367	-0.01297	-0.018921	-0.15442	-0.002136	-0.025024
32.696	-0.004272	0.067444	-0.029144	0.00946	-0.11643	0.084991	-0.18936	-0.005188	0.21271	0.1268	-0.023956	-0.17288	0.23499	-0.042419	-0.088348	0.011749	-0.039825	1.0741	0.18723	0.068054	-0.093384	-0.14725	0.60913	0.000763	-0.052795	0.012207	-0.020294	-0.008087	0.31723	-0.095215	0	-0.024261
32.697	0.000458	-0.060883	-0.037079	-0.018311	-0.094757	-0.17151	-0.15381	-0.004272	0.13382	0.19089	0.12451	-0.16815	-0.32745	-0.082245	0.006104	0.011444	-0.060883	0.99853	0.000763	-0.032806	-0.10056	-0.16037	0.63217	-0.030365	-0.05249	0.010223	-0.17624	-0.006409	1.1111	-0.15488	-0.002136	-0.019379
32.698	-0.001221	-0.14084	0.070801	-0.013428	-0.06546	-0.43671	-0.085907	-0.004272	0.11765	0.24216	0.14053	-0.16312	0.20203	0.12604	0.048828	0.018005	-0.15884	1.0739	-0.012817	-0.16449	-0.093689	-0.14893	0.68451	0.014496	-0.062256	0.008392	-0.32364	-0.005341	1.4807	-0.11932	-0.000916	-0.02121
32.699	-0.010529	-0.25024	0.089111	-0.00351	-0.083771	-0.25772	-0.068512	0.00473	0.13825	0.083923	0.066223	-0.1683	1.0356	0.25284	0.089722	0.019073	-0.19043	1.1343	0.097198	-0.23041	-0.10223	-0.16174	0.58151	0.058746	-0.049438	0.014801	-0.25452	-0.006256	0.45166	-0.1236	-0.003967	-0.010529
32.7	-0.015106	-0.31952	0.084381	0.018921	-0.12329	0.091858	-0.072479	0.011749	0.15747	-0.25269	-0.031586	-0.15488	0.78583	0.37064	0.25024	0.029602	-0.16724	1.218	0.060425	-0.1149	-0.10635	-0.16327	0.38711	0.068665	-0.045624	0.001678	-0.092163	-0.004272	-0.18448	0.013428	-0.001831	-0.009918
32.701	-0.025024	-0.41992	0.052338	0.000153	-0.15854	0.13229	-0.080566	0.00824	0.17639	-0.32288	0.041351	-0.1355	-0.74539	0.27802	0.42938	0.017853	-0.12009	1.2193	-0.20783	0.065155	-0.080872	-0.12604	0.12711	0.053864	-0.032501	0.003052	0.076599	-0.001221	-0.30472	0.099945	-0.002899	-0.01358
32.702	-0.000763	-0.50751	-0.007324	0.001984	0.010529	-0.057831	-0.091705	0.015106	0.19516	-0.24628	0.1712	-0.12466	-1.032	-0.044098	-0.041504	0.012207	-0.068665	1.2456	-0.18387	0.1088	-0.048828	-0.11429	-0.07309	0.029602	-0.028381	0.000305	0.14786	0.004883	0.068665	0.016632	0.003662	-0.020752
32.703	0.019379	-0.6279	-0.084839	-0.013275	0.047913	-0.12573	-0.078888	0.007172	0.15427	-0.24612	0.13718	-0.11673	0.10025	-0.28686	-0.038605	-0.005798	-0.035553	1.2671	-0.090637	0.12177	-0.039215	-0.11597	-0.017395	0.01709	-0.054321	-0.013123	-0.004578	0.001678	0.64712	0.017242	-0.001526	-0.019379
32.704	-0.003204	-0.67825	-0.17456	-0.01358	-0.035095	-0.083466	-0.054932	0.014038	0.055542	-0.12116	0.21896	-0.11704	-0.55771	-0.54764	-0.29923	-0.013885	-0.043488	1.3589	-0.048523	0.11002	-0.062561	-0.11169	0.1001	-0.016785	-0.070648	-0.02533	-0.039825	0.002136	0.6279	0.11078	-0.00061	-0.021515
32.705	-0.020294	-0.63629	-0.15564	-0.003967	-0.02182	0.15427	-0.079498	0.012054	0.052032	-0.06134	0.071716	-0.10971	-0.5925	-0.29892	-0.2298	0.000916	-0.04425	1.481	-0.035706	0.061646	-0.086823	-0.11368	0.21652	-0.007935	-0.094299	-0.028534	0.034485	-0.001221	-0.23056	0.052948	-0.001526	-0.015869
32.706	-0.014648	-0.5484	0.046692	0.014343	-0.077209	0.063629	-0.031738	0.020752	0.063324	0.22064	-0.052643	-0.1088	-0.032043	0.11612	-0.24231	-0.003967	-0.04837	1.6277	0.18448	-0.005798	-0.10101	-0.10986	0.16159	-0.067902	-0.093231	-0.02655	-0.10132	-0.002136	-0.7164	-0.063324	0.00061	-0.013275
